<?xml version="1.0" standalone="no"?><!DOCTYPE svg PUBLIC "-//W3C//DTD SVG 1.1//EN" "http://www.w3.org/Graphics/SVG/1.1/DTD/svg11.dtd"><svg t="1776866621470" class="icon" viewBox="0 0 1024 1024" version="1.1" xmlns="http://www.w3.org/2000/svg" p-id="1681" xmlns:xlink="http://www.w3.org/1999/xlink" width="200" height="200"><path d="M240.466796 686.071177a116.968892 116.968892 0 0 0-125.730606 104.702491 116.968892 116.968892 0 0 0 125.730606 104.702491A116.968892 116.968892 0 0 0 364.44506 790.773668a116.968892 116.968892 0 0 0-123.978264-104.702491z m0 165.596408c-43.808574 0-81.922033-27.161316-81.922032-60.893917s36.799202-60.893917 81.922032-60.893917S320.636486 757.479152 320.636486 790.773668s-35.046859 60.893917-80.16969 60.893917zM84.070188 902.047445A65.71286 65.71286 0 0 0 13.97647 963.817534a65.71286 65.71286 0 0 0 70.093718 60.017746A65.71286 65.71286 0 0 0 153.72582 963.817534a65.71286 65.71286 0 0 0-69.655632-61.770089z m0 76.665004c-14.894915 0-26.285144-8.761715-26.285144-16.209172s11.390229-16.209172 26.285144-16.209173 26.285144 8.761715 26.285145 16.209173-11.390229 16.209172-26.285145 16.209172zM925.632888 259.37567a180.053238 180.053238 0 0 0-49.503688-121.787835 210.719239 210.719239 0 0 0-149.387236-64.836689A189.253038 189.253038 0 0 0 574.288127 0.028914a201.081353 201.081353 0 0 0-119.597406 38.551544A137.997007 137.997007 0 0 0 362.254631 4.409771a141.939779 141.939779 0 0 0-140.187436 103.82632A276.4321 276.4321 0 0 0 13.97647 394.306076a271.613157 271.613157 0 0 0 258.908671 234.375869 162.529808 162.529808 0 0 0 169.53918 16.209173 203.709867 203.709867 0 0 0 117.406977 35.046859 208.090725 208.090725 0 0 0 175.234295-87.617148 278.184443 278.184443 0 0 0 36.361116 2.190429 258.470585 258.470585 0 0 0 191.005381-81.045861 167.786837 167.786837 0 0 0 43.808574-131.425721 169.53918 169.53918 0 0 0-80.607776-122.664006z m8.323629 226.490325a219.042868 219.042868 0 0 1-201.957524 62.208175 21.904287 21.904287 0 0 0-23.65663 11.828315 162.091722 162.091722 0 0 1-145.444465 78.417347 155.958522 155.958522 0 0 1-101.197805-34.170688 21.904287 21.904287 0 0 0-25.847058 0 118.283149 118.283149 0 0 1-135.368493-8.761714 21.466201 21.466201 0 0 0-14.456829-6.133201A229.11884 229.11884 0 0 1 57.785044 391.677562a233.937783 233.937783 0 0 1 188.376867-244.451841 21.904287 21.904287 0 0 0 16.647258-18.837687A96.378862 96.378862 0 0 1 362.254631 48.218345a93.750348 93.750348 0 0 1 74.036489 34.170687 21.904287 21.904287 0 0 0 31.980259 2.190429A156.396608 156.396608 0 0 1 574.288127 43.837487a144.568293 144.568293 0 0 1 122.664007 63.084346 21.466201 21.466201 0 0 0 19.275772 10.075972h6.1332A167.348751 167.348751 0 0 1 846.33937 167.815751a136.68275 136.68275 0 0 1 37.237287 102.950148 21.904287 21.904287 0 0 0 11.39023 20.590029 131.425721 131.425721 0 0 1 73.160318 98.131205 124.416349 124.416349 0 0 1-34.170688 96.378862z" fill="#231F20" p-id="1682"></path></svg>