<svg xmlns="http://www.w3.org/2000/svg" viewBox="0 0 1600 1000" preserveAspectRatio="xMidYMid slice">
  <defs>
    <pattern id="bookPages" x="0" y="0" width="320" height="240" patternUnits="userSpaceOnUse">
      <g fill="none" stroke="#065F46" stroke-width="1" stroke-linecap="round" opacity="0.9">
        <path d="M40 90c18-6 36-6 54 4 18-10 36-10 54-4v40c-18-6-36-6-54 4-18-10-36-10-54-4Z"/>
        <path d="M94 94v40"/>
        <path d="M210 40h42a4 4 0 0 1 4 4v20a4 4 0 0 1-4 4h-20l-14 10v-10h-8a4 4 0 0 1-4-4V44a4 4 0 0 1 4-4Z"/>
      </g>
      <g fill="#065F46" opacity="0.6">
        <circle cx="260" cy="170" r="1.5"/>
        <circle cx="160" cy="200" r="1.2"/>
        <circle cx="70" cy="30" r="1"/>
      </g>
    </pattern>
    <pattern id="inkDots" x="0" y="0" width="80" height="80" patternUnits="userSpaceOnUse">
      <circle cx="20" cy="30" r="0.8" fill="#065F46" opacity="0.4"/>
      <circle cx="58" cy="62" r="0.6" fill="#065F46" opacity="0.3"/>
    </pattern>
  </defs>
  <rect width="1600" height="1000" fill="#FAF7F0"/>
  <rect width="1600" height="1000" fill="url(#inkDots)" opacity="0.5"/>
  <rect width="1600" height="1000" fill="url(#bookPages)" opacity="0.045"/>
  <g opacity="0.05" stroke="#065F46" fill="none" stroke-linecap="round">
    <path d="M120 780 Q 260 720 400 780 T 680 780" stroke-width="1.5"/>
    <path d="M1000 180 Q 1160 120 1320 180 T 1560 200" stroke-width="1.5"/>
    <path d="M1200 820 Q 1320 760 1460 800" stroke-width="1.2"/>
  </g>
</svg>
